<svg version="1.1" xmlns="http://www.w3.org/2000/svg" xmlns:xlink="http://www.w3.org/1999/xlink" style="overflow: hidden; position: relative; left: -0.5px; top: -0.5px;" viewBox="0 0 1059.0546875 321" preserveAspectRatio="xMidYMid meet"><desc style="-webkit-tap-highlight-color: rgba(0, 0, 0, 0);">Created with Raphaël @@VERSION</desc><defs style="-webkit-tap-highlight-color: rgba(0, 0, 0, 0);"><path stroke-linecap="round" d="M5,0 0,2.5 5,5z" id="raphael-marker-block" style="-webkit-tap-highlight-color: rgba(0, 0, 0, 0);"/><marker id="raphael-marker-endblock33-obj6986" markerHeight="3" markerWidth="3" orient="auto" refX="1.5" refY="1.5" style="-webkit-tap-highlight-color: rgba(0, 0, 0, 0);"><use xmlns:xlink="http://www.w3.org/1999/xlink" xlink:href="#raphael-marker-block" transform="rotate(180 1.5 1.5) scale(0.6,0.6)" stroke-width="1.6667" fill="black" stroke="none" style="-webkit-tap-highlight-color: rgba(0, 0, 0, 0);"/></marker><marker id="raphael-marker-endblock33-obj6987" markerHeight="3" markerWidth="3" orient="auto" refX="1.5" refY="1.5" style="-webkit-tap-highlight-color: rgba(0, 0, 0, 0);"><use xmlns:xlink="http://www.w3.org/1999/xlink" xlink:href="#raphael-marker-block" transform="rotate(180 1.5 1.5) scale(0.6,0.6)" stroke-width="1.6667" fill="black" stroke="none" style="-webkit-tap-highlight-color: rgba(0, 0, 0, 0);"/></marker><marker id="raphael-marker-endblock33-obj6988" markerHeight="3" markerWidth="3" orient="auto" refX="1.5" refY="1.5" style="-webkit-tap-highlight-color: rgba(0, 0, 0, 0);"><use xmlns:xlink="http://www.w3.org/1999/xlink" xlink:href="#raphael-marker-block" transform="rotate(180 1.5 1.5) scale(0.6,0.6)" stroke-width="1.6667" fill="black" stroke="none" style="-webkit-tap-highlight-color: rgba(0, 0, 0, 0);"/></marker><marker id="raphael-marker-endblock33-obj6989" markerHeight="3" markerWidth="3" orient="auto" refX="1.5" refY="1.5" style="-webkit-tap-highlight-color: rgba(0, 0, 0, 0);"><use xmlns:xlink="http://www.w3.org/1999/xlink" xlink:href="#raphael-marker-block" transform="rotate(180 1.5 1.5) scale(0.6,0.6)" stroke-width="1.6667" fill="black" stroke="none" style="-webkit-tap-highlight-color: rgba(0, 0, 0, 0);"/></marker><marker id="raphael-marker-endblock33-obj6990" markerHeight="3" markerWidth="3" orient="auto" refX="1.5" refY="1.5" style="-webkit-tap-highlight-color: rgba(0, 0, 0, 0);"><use xmlns:xlink="http://www.w3.org/1999/xlink" xlink:href="#raphael-marker-block" transform="rotate(180 1.5 1.5) scale(0.6,0.6)" stroke-width="1.6667" fill="black" stroke="none" style="-webkit-tap-highlight-color: rgba(0, 0, 0, 0);"/></marker><marker id="raphael-marker-endblock33-obj6991" markerHeight="3" markerWidth="3" orient="auto" refX="1.5" refY="1.5" style="-webkit-tap-highlight-color: rgba(0, 0, 0, 0);"><use xmlns:xlink="http://www.w3.org/1999/xlink" xlink:href="#raphael-marker-block" transform="rotate(180 1.5 1.5) scale(0.6,0.6)" stroke-width="1.6667" fill="black" stroke="none" style="-webkit-tap-highlight-color: rgba(0, 0, 0, 0);"/></marker><marker id="raphael-marker-endblock33-obj6992" markerHeight="3" markerWidth="3" orient="auto" refX="1.5" refY="1.5" style="-webkit-tap-highlight-color: rgba(0, 0, 0, 0);"><use xmlns:xlink="http://www.w3.org/1999/xlink" xlink:href="#raphael-marker-block" transform="rotate(180 1.5 1.5) scale(0.6,0.6)" stroke-width="1.6667" fill="black" stroke="none" style="-webkit-tap-highlight-color: rgba(0, 0, 0, 0);"/></marker></defs><rect x="0" y="0" width="94.703125" height="36" rx="20" ry="20" fill="#ffffff" stroke="#000000" style="-webkit-tap-highlight-color: rgba(0, 0, 0, 0);" stroke-width="3" class="flowchart" id="st" transform="matrix(1,0,0,1,50.4609,6)"/><text x="10" y="18" text-anchor="start" font-family="&quot;Arial&quot;" font-size="14px" stroke="none" fill="#000000" style="-webkit-tap-highlight-color: rgba(0, 0, 0, 0); text-anchor: start; font-family: Arial; font-size: 14px;" id="stt" class="flowchartt" transform="matrix(1,0,0,1,50.4609,6)" stroke-width="1"><tspan dy="5" style="-webkit-tap-highlight-color: rgba(0, 0, 0, 0);">input.txt.hcz</tspan></text><rect x="0" y="0" width="137.484375" height="36" rx="20" ry="20" fill="#ffffff" stroke="#000000" style="-webkit-tap-highlight-color: rgba(0, 0, 0, 0);" stroke-width="3" class="flowchart" id="cb" transform="matrix(1,0,0,1,29.0703,98)"/><text x="10" y="18" text-anchor="start" font-family="&quot;Arial&quot;" font-size="14px" stroke="none" fill="#000000" style="-webkit-tap-highlight-color: rgba(0, 0, 0, 0); text-anchor: start; font-family: Arial; font-size: 14px;" id="cbt" class="flowchartt" transform="matrix(1,0,0,1,29.0703,98)" stroke-width="1"><tspan dy="5" style="-webkit-tap-highlight-color: rgba(0, 0, 0, 0);">HuffmanCodebook</tspan></text><rect x="0" y="0" width="160.046875" height="36" rx="0" ry="0" fill="#ffffff" stroke="#000000" style="-webkit-tap-highlight-color: rgba(0, 0, 0, 0);" stroke-width="3" class="flowchart" id="huff" transform="matrix(1,0,0,1,17.7891,190)"/><rect x="10" y="0" width="140.046875" height="36" rx="0" ry="0" fill="#ffffff" stroke="#000000" style="-webkit-tap-highlight-color: rgba(0, 0, 0, 0);" stroke-width="3" id="huffi" transform="matrix(1,0,0,1,17.7891,190)"/><text x="20" y="18" text-anchor="start" font-family="&quot;Arial&quot;" font-size="14px" stroke="none" fill="#000000" style="-webkit-tap-highlight-color: rgba(0, 0, 0, 0); text-anchor: start; font-family: Arial; font-size: 14px;" id="hufft" class="flowchartt" transform="matrix(1,0,0,1,17.7891,190)" stroke-width="1"><tspan dy="5" style="-webkit-tap-highlight-color: rgba(0, 0, 0, 0);">Build Huffman Tree</tspan></text><rect x="0" y="0" width="132.046875" height="36" rx="0" ry="0" fill="#ffffff" stroke="#000000" style="-webkit-tap-highlight-color: rgba(0, 0, 0, 0);" stroke-width="3" class="flowchart" id="read" transform="matrix(1,0,0,1,259.625,190)"/><text x="10" y="18" text-anchor="start" font-family="&quot;Arial&quot;" font-size="14px" stroke="none" fill="#000000" style="-webkit-tap-highlight-color: rgba(0, 0, 0, 0); text-anchor: start; font-family: Arial; font-size: 14px;" id="readt" class="flowchartt" transform="matrix(1,0,0,1,259.625,190)" stroke-width="1"><tspan dy="5" style="-webkit-tap-highlight-color: rgba(0, 0, 0, 0);">Read input.txt.hcz</tspan></text><rect x="0" y="0" width="183.625" height="36" rx="0" ry="0" fill="#ffffff" stroke="#000000" style="-webkit-tap-highlight-color: rgba(0, 0, 0, 0);" stroke-width="3" class="flowchart" id="traverse" transform="matrix(1,0,0,1,447.6719,190)"/><rect x="10" y="0" width="163.625" height="36" rx="0" ry="0" fill="#ffffff" stroke="#000000" style="-webkit-tap-highlight-color: rgba(0, 0, 0, 0);" stroke-width="3" id="traversei" transform="matrix(1,0,0,1,447.6719,190)"/><text x="20" y="18" text-anchor="start" font-family="&quot;Arial&quot;" font-size="14px" stroke="none" fill="#000000" style="-webkit-tap-highlight-color: rgba(0, 0, 0, 0); text-anchor: start; font-family: Arial; font-size: 14px;" id="traverset" class="flowchartt" transform="matrix(1,0,0,1,447.6719,190)" stroke-width="1"><tspan dy="5" style="-webkit-tap-highlight-color: rgba(0, 0, 0, 0);">Traverse Huffman Tree</tspan></text><rect x="0" y="0" width="96.46875" height="36" rx="0" ry="0" fill="#ffffff" stroke="#000000" style="-webkit-tap-highlight-color: rgba(0, 0, 0, 0);" stroke-width="3" class="flowchart" id="encode" transform="matrix(1,0,0,1,730.875,190)"/><text x="10" y="18" text-anchor="start" font-family="&quot;Arial&quot;" font-size="14px" stroke="none" fill="#000000" style="-webkit-tap-highlight-color: rgba(0, 0, 0, 0); text-anchor: start; font-family: Arial; font-size: 14px;" id="encodet" class="flowchartt" transform="matrix(1,0,0,1,730.875,190)" stroke-width="1"><tspan dy="5" style="-webkit-tap-highlight-color: rgba(0, 0, 0, 0);">Fetch Token</tspan></text><rect x="0" y="0" width="161.796875" height="36" rx="0" ry="0" fill="#ffffff" stroke="#000000" style="-webkit-tap-highlight-color: rgba(0, 0, 0, 0);" stroke-width="3" class="flowchart" id="write" transform="matrix(1,0,0,1,894.2578,190)"/><text x="10" y="18" text-anchor="start" font-family="&quot;Arial&quot;" font-size="14px" stroke="none" fill="#000000" style="-webkit-tap-highlight-color: rgba(0, 0, 0, 0); text-anchor: start; font-family: Arial; font-size: 14px;" id="writet" class="flowchartt" transform="matrix(1,0,0,1,894.2578,190)" stroke-width="1"><tspan dy="5" style="-webkit-tap-highlight-color: rgba(0, 0, 0, 0);">Write Deccoded Token</tspan></text><rect x="0" y="0" width="70.125" height="36" rx="20" ry="20" fill="#ffffff" stroke="#000000" style="-webkit-tap-highlight-color: rgba(0, 0, 0, 0);" stroke-width="3" class="flowchart" id="e" transform="matrix(1,0,0,1,940.0938,282)"/><text x="10" y="18" text-anchor="start" font-family="&quot;Arial&quot;" font-size="14px" stroke="none" fill="#000000" style="-webkit-tap-highlight-color: rgba(0, 0, 0, 0); text-anchor: start; font-family: Arial; font-size: 14px;" id="et" class="flowchartt" transform="matrix(1,0,0,1,940.0938,282)" stroke-width="1"><tspan dy="5" style="-webkit-tap-highlight-color: rgba(0, 0, 0, 0);">input.txt</tspan></text><path fill="none" stroke="#000000" d="M97.8125,42C97.8125,42,97.8125,80.20077085494995,97.8125,93.50016031763516" stroke-width="3" marker-end="url(#raphael-marker-endblock33-obj6986)" style="-webkit-tap-highlight-color: rgba(0, 0, 0, 0);"/><path fill="none" stroke="#000000" d="M97.8125,134C97.8125,134,97.8125,172.20077085494995,97.8125,185.50016031763516" stroke-width="3" marker-end="url(#raphael-marker-endblock33-obj6987)" style="-webkit-tap-highlight-color: rgba(0, 0, 0, 0);"/><path fill="none" stroke="#000000" d="M177.8359375,208C177.8359375,208,237.99923531198874,208,255.1257990934289,208" stroke-width="3" marker-end="url(#raphael-marker-endblock33-obj6988)" style="-webkit-tap-highlight-color: rgba(0, 0, 0, 0);"/><path fill="none" stroke="#000000" d="M391.671875,208C391.671875,208,429.87264585494995,208,443.17203531763516,208" stroke-width="3" marker-end="url(#raphael-marker-endblock33-obj6989)" style="-webkit-tap-highlight-color: rgba(0, 0, 0, 0);"/><path fill="none" stroke="#000000" d="M631.296875,208C631.296875,208,706.9419191665947,208,726.370285002351,208" stroke-width="3" marker-end="url(#raphael-marker-endblock33-obj6990)" style="-webkit-tap-highlight-color: rgba(0, 0, 0, 0);"/><path fill="none" stroke="#000000" d="M827.34375,208C827.34375,208,874.7605253756046,208,889.763489459292,208" stroke-width="3" marker-end="url(#raphael-marker-endblock33-obj6991)" style="-webkit-tap-highlight-color: rgba(0, 0, 0, 0);"/><path fill="none" stroke="#000000" d="M975.15625,226C975.15625,226,975.15625,264.20077085494995,975.15625,277.50016031763516" stroke-width="3" marker-end="url(#raphael-marker-endblock33-obj6992)" style="-webkit-tap-highlight-color: rgba(0, 0, 0, 0);"/></svg>